<?xml version="1.0" encoding="UTF-8"?>
<svg version="1.1" xmlns="http://www.w3.org/2000/svg" width="32" height="32">
<path d="M0 0 C2.5625 0.1875 2.5625 0.1875 4.5625 2.1875 C6.08306618 2.78584554 7.62862088 3.32256656 9.1875 3.8125 C10.00476563 4.07289062 10.82203125 4.33328125 11.6640625 4.6015625 C12.29054688 4.79492188 12.91703125 4.98828125 13.5625 5.1875 C13.52125 6.239375 13.48 7.29125 13.4375 8.375 C13.55561045 11.97736877 14.12944676 13.96313021 15.5625 17.1875 C15.5625 18.1775 15.5625 19.1675 15.5625 20.1875 C14.5725 20.1875 13.5825 20.1875 12.5625 20.1875 C12.8925 22.1675 13.2225 24.1475 13.5625 26.1875 C13.02625 25.98125 12.49 25.775 11.9375 25.5625 C8.70771108 25.05253333 6.61870367 26.08726668 3.5625 27.1875 C0.375 27.9375 0.375 27.9375 -2.4375 28.1875 C-3.4275 27.5275 -4.4175 26.8675 -5.4375 26.1875 C-9.08779401 24.78951506 -11.48135203 24.1875 -15.4375 24.1875 C-15.4375 17.9175 -15.4375 11.6475 -15.4375 5.1875 C-12.34505208 4.17838542 -9.25260417 3.16927083 -6.16015625 2.16015625 C-0.14458661 0.01112205 -0.14458661 0.01112205 0 0 Z " fill="#CB9258" transform="translate(16.4375,1.8125)"/>
<path d="M0 0 C2.5625 0.1875 2.5625 0.1875 4.5625 2.1875 C7.13311311 2.83517793 7.13311311 2.83517793 9.5625 3.1875 C6.32664967 6.42335033 1.94152513 7.17695574 -2.4375 8.1875 C-2.4375 7.5275 -2.4375 6.8675 -2.4375 6.1875 C-5.0775 6.1875 -7.7175 6.1875 -10.4375 6.1875 C-10.7675 7.5075 -11.0975 8.8275 -11.4375 10.1875 C-10.4475 9.8575 -9.4575 9.5275 -8.4375 9.1875 C-8.4375 12.1875 -8.4375 12.1875 -9 13.9375 C-9.62458412 17.1496469 -8.99085809 19.99031993 -8.4375 23.1875 C-11.4375 24.1875 -11.4375 24.1875 -15.4375 24.1875 C-15.4375 17.9175 -15.4375 11.6475 -15.4375 5.1875 C-12.34505208 4.17838542 -9.25260417 3.16927083 -6.16015625 2.16015625 C-0.14458661 0.01112205 -0.14458661 0.01112205 0 0 Z " fill="#E6A584" transform="translate(16.4375,1.8125)"/>
<path d="M0 0 C1.051875 0.309375 2.10375 0.61875 3.1875 0.9375 C6.78893736 2.04935654 6.78893736 2.04935654 9.75 2.3125 C12 3 12 3 13.8125 5.4375 C15 8 15 8 15 10 C13.68 10 12.36 10 11 10 C11.33 11.65 11.66 13.3 12 15 C11.34 14.67 10.68 14.34 10 14 C10 12.68 10 11.36 10 10 C9.34 10 8.68 10 8 10 C8 11.32 8 12.64 8 14 C7.01 14 6.02 14 5 14 C4.67 12.35 4.34 10.7 4 9 C3.34 9 2.68 9 2 9 C1.67 10.65 1.34 12.3 1 14 C0.34 13.67 -0.32 13.34 -1 13 C-0.814375 12.46375 -0.62875 11.9275 -0.4375 11.375 C0.11256128 8.38895306 -0.49335587 5.97653426 -1 3 C-0.67 2.01 -0.34 1.02 0 0 Z " fill="#60858E" transform="translate(7,13)"/>
<path d="M0 0 C-0.33 1.32 -0.66 2.64 -1 4 C-2.32 3.34 -3.64 2.68 -5 2 C-5.33 2.66 -5.66 3.32 -6 4 C-6 3.34 -6 2.68 -6 2 C-7.65 2 -9.3 2 -11 2 C-10.67 3.32 -10.34 4.64 -10 6 C-12.3431213 5.74438677 -14.67843403 5.40729228 -17 5 C-17.33 4.34 -17.66 3.68 -18 3 C-19.175625 3.0928125 -19.175625 3.0928125 -20.375 3.1875 C-21.24125 3.125625 -22.1075 3.06375 -23 3 C-23.66 2.01 -24.32 1.02 -25 0 C-18.25 -0.125 -18.25 -0.125 -16 1 C-16 1.66 -16 2.32 -16 3 C-14.9171875 2.2884375 -14.9171875 2.2884375 -13.8125 1.5625 C-8.89715867 -1.16824518 -5.45798298 -1.14236853 0 0 Z " fill="#477D9D" transform="translate(30,7)"/>
<path d="M0 0 C0.66 0 1.32 0 2 0 C2.33 1.65 2.66 3.3 3 5 C3.99 5 4.98 5 6 5 C6 3.68 6 2.36 6 1 C6.66 1 7.32 1 8 1 C8.33 1.66 8.66 2.32 9 3 C9 2.34 9 1.68 9 1 C10.65 1.33 12.3 1.66 14 2 C14 2.99 14 3.98 14 5 C11.39076031 7.08739175 9.87903298 8.06592747 6.5 7.8125 C3.94514723 6.98217285 1.46912547 6.05819663 -1 5 C-0.67 3.35 -0.34 1.7 0 0 Z " fill="#E2CD53" transform="translate(9,22)"/>
<path d="M0 0 C2.3125 0.1875 2.3125 0.1875 5 1 C8 5.03448276 8 5.03448276 8 8 C6.68 8 5.36 8 4 8 C4.33 9.65 4.66 11.3 5 13 C4.34 12.67 3.68 12.34 3 12 C3 10.68 3 9.36 3 8 C2.34 8 1.68 8 1 8 C1 9.32 1 10.64 1 12 C0.01 12 -0.98 12 -2 12 C-2 11.34 -2 10.68 -2 10 C-1.34 10 -0.68 10 0 10 C0.144375 9.071875 0.28875 8.14375 0.4375 7.1875 C1 4 1 4 2 1 C1.34 0.67 0.68 0.34 0 0 Z " fill="#244463" transform="translate(14,15)"/>
<path d="M0 0 C0.99 0.33 1.98 0.66 3 1 C3.33 4.3 3.66 7.6 4 11 C1 12 1 12 -3 12 C-3 8.7 -3 5.4 -3 2 C-2.34 2 -1.68 2 -1 2 C-1 2.66 -1 3.32 -1 4 C-0.34 4 0.32 4 1 4 C0.67 2.68 0.34 1.36 0 0 Z " fill="#DF6073" transform="translate(4,14)"/>
<path d="M0 0 C4.75 0.875 4.75 0.875 7 2 C7.625 5.0625 7.625 5.0625 8 8 C7.01 8 6.02 8 5 8 C5.33 9.98 5.66 11.96 6 14 C5.01 13.67 4.02 13.34 3 13 C2.67 9.37 2.34 5.74 2 2 C1.34 2 0.68 2 0 2 C0 1.34 0 0.68 0 0 Z " fill="#1D4060" transform="translate(24,14)"/>
<path d="M0 0 C2.5625 0.1875 2.5625 0.1875 4.5625 2.1875 C7.13311311 2.83517793 7.13311311 2.83517793 9.5625 3.1875 C6.32664967 6.42335033 1.94152513 7.17695574 -2.4375 8.1875 C-2.81813221 5.8614143 -3.15019945 3.52694736 -3.4375 1.1875 C-2.4375 0.1875 -2.4375 0.1875 0 0 Z " fill="#B6B982" transform="translate(16.4375,1.8125)"/>
<path d="M0 0 C0.99 0.33 1.98 0.66 3 1 C4.25 7.625 4.25 7.625 2 11 C1.34 11 0.68 11 0 11 C-1.7578125 5.04296875 -1.7578125 5.04296875 -2 3 C-1.34 2.01 -0.68 1.02 0 0 Z " fill="#9A3B22" transform="translate(23,17)"/>
<path d="M0 0 C0.66 0 1.32 0 2 0 C2 0.66 2 1.32 2 2 C3.65 1.67 5.3 1.34 7 1 C6.67 3.64 6.34 6.28 6 9 C5.67 8.01 5.34 7.02 5 6 C4.34 6 3.68 6 3 6 C2.67 7.65 2.34 9.3 2 11 C1.34 10.67 0.68 10.34 0 10 C0.185625 9.46375 0.37125 8.9275 0.5625 8.375 C1.11419324 5.38009386 0.60597444 2.96254171 0 0 Z " fill="#16496A" transform="translate(6,16)"/>
<path d="M0 0 C0 0.99 0 1.98 0 3 C-1.98567708 2.93489583 -3.97135417 2.86979167 -5.95703125 2.8046875 C-8.31359719 2.86745538 -8.31359719 2.86745538 -11 5 C-11.66 5 -12.32 5 -13 5 C-13 4.01 -13 3.02 -13 2 C-11.39935157 1.46845258 -9.79431126 0.95011647 -8.1875 0.4375 C-7.29417969 0.14746094 -6.40085937 -0.14257812 -5.48046875 -0.44140625 C-3 -1 -3 -1 0 0 Z " fill="#CF9A4C" transform="translate(14,5)"/>
<path d="M0 0 C-0.33 1.32 -0.66 2.64 -1 4 C-2.32 3.34 -3.64 2.68 -5 2 C-5.33 2.66 -5.66 3.32 -6 4 C-6 3.34 -6 2.68 -6 2 C-7.98 2 -9.96 2 -12 2 C-11.67 1.34 -11.34 0.68 -11 0 C-7.0832314 -1.23098442 -3.97610732 -0.83220851 0 0 Z " fill="#3D1F13" transform="translate(30,7)"/>
<path d="M0 0 C3.71599191 -0.20086443 4.77208445 -0.1519437 8 2 C7.67 2.66 7.34 3.32 7 4 C6.34 3.67 5.68 3.34 5 3 C4.67 3.99 4.34 4.98 4 6 C3.34 6 2.68 6 2 6 C1.34 4.02 0.68 2.04 0 0 Z " fill="#D38F20" transform="translate(18,14)"/>
<path d="M0 0 C1.42944945 2.35438733 2.08661261 3.48032433 1.625 6.25 C1.41875 6.8275 1.2125 7.405 1 8 C-0.32 8 -1.64 8 -3 8 C-3 6.35 -3 4.7 -3 3 C-2.01 3 -1.02 3 0 3 C0 2.01 0 1.02 0 0 Z " fill="#C3605F" transform="translate(6,18)"/>
<path d="M0 0 C1.98 0 3.96 0 6 0 C6 1.66666667 6 3.33333333 6 5 C5.01 5 4.02 5 3 5 C2.34 4.34 1.68 3.68 1 3 C0.34 3 -0.32 3 -1 3 C-0.67 2.01 -0.34 1.02 0 0 Z " fill="#B07F58" transform="translate(6,9)"/>
<path d="M0 0 C1.84765625 0.33984375 1.84765625 0.33984375 4.0625 0.9375 C5.16271484 1.22947266 5.16271484 1.22947266 6.28515625 1.52734375 C7.13400391 1.76130859 7.13400391 1.76130859 8 2 C5.64046906 4.35953094 4.22104383 4.49141413 1 5 C0.34 3.68 -0.32 2.36 -1 1 C-0.67 0.67 -0.34 0.34 0 0 Z " fill="#B9B4A4" transform="translate(12,11)"/>
<path d="M0 0 C2.475 0.495 2.475 0.495 5 1 C5 2.32 5 3.64 5 5 C4.34 5.66 3.68 6.32 3 7 C2 6 2 6 1.9375 3.4375 C1.958125 2.633125 1.97875 1.82875 2 1 C1.34 0.67 0.68 0.34 0 0 Z " fill="#19537C" transform="translate(14,15)"/>
<path d="M0 0 C2.475 0.495 2.475 0.495 5 1 C5 1.99 5 2.98 5 4 C3.68 4 2.36 4 1 4 C0.67 2.68 0.34 1.36 0 0 Z " fill="#DD8C2E" transform="translate(18,23)"/>
<path d="M0 0 C3.375 -0.125 3.375 -0.125 7 0 C7.66 0.66 8.32 1.32 9 2 C6.46578263 3.26710868 4.80561762 3.28056176 2 3 C1.34 2.01 0.68 1.02 0 0 Z " fill="#391C0E" transform="translate(5,7)"/>
</svg>
